<?xml version="1.0" standalone="no"?>
<!DOCTYPE svg PUBLIC "-//W3C//DTD SVG 20010904//EN"
 "http://www.w3.org/TR/2001/REC-SVG-20010904/DTD/svg10.dtd">
<svg version="1.0" xmlns="http://www.w3.org/2000/svg"
 width="642.000000pt" height="389.000000pt" viewBox="0 0 642.000000 389.000000"
 preserveAspectRatio="xMidYMid meet">

<g transform="translate(0.000000,389.000000) scale(0.100000,-0.100000)"
fill="currentColor" stroke="none">
<path d="M1305 3826 c-45 -20 -67 -50 -72 -100 -7 -55 10 -100 46 -125 36 -25
285 -127 346 -142 126 -30 239 -106 290 -193 13 -23 34 -79 48 -126 13 -47 97
-287 186 -535 372 -1028 413 -1147 408 -1191 -3 -26 -43 -115 -113 -249 -128
-244 -143 -278 -143 -327 -1 -47 34 -90 95 -115 42 -17 45 -20 39 -48 -45
-226 -22 -348 88 -463 174 -181 430 -186 611 -12 106 101 144 212 125 364 -5
42 -14 88 -19 102 -6 14 -10 30 -10 35 0 5 136 9 341 9 l341 0 -6 -22 c-57
-202 -42 -327 56 -449 45 -56 145 -126 215 -151 91 -32 199 -23 296 25 210
104 291 271 242 501 -8 38 -17 77 -20 87 -5 16 1 18 63 17 78 0 115 14 146 54
26 36 27 115 2 153 -38 57 9 55 -1166 55 -594 0 -1080 2 -1080 4 0 3 23 52 51
111 40 82 59 110 83 123 29 16 100 17 902 19 972 1 915 -3 953 71 10 20 42
111 70 202 29 91 86 271 128 400 41 129 108 339 148 465 41 127 101 315 134
420 80 248 80 313 2 348 -19 9 -382 13 -1449 17 l-1424 5 -23 28 c-14 15 -34
59 -45 97 -30 102 -74 206 -104 244 -14 18 -47 44 -73 56 -98 46 -604 240
-641 245 -21 3 -50 -1 -67 -9z m1738 -954 c12 -13 23 -78 42 -257 14 -132 25
-255 25 -273 l0 -33 -275 3 c-230 3 -277 5 -290 18 -13 14 -205 526 -205 550
0 7 117 10 343 10 317 0 345 -1 360 -18z m937 6 c0 -7 -5 -51 -10 -98 -5 -47
-17 -152 -25 -235 -8 -82 -18 -167 -21 -188 l-6 -37 -291 2 -292 3 -27 255
c-15 140 -27 267 -27 283 l-1 27 350 0 c273 0 350 -3 350 -12z m834 -185 c-35
-109 -74 -230 -85 -270 -36 -120 -16 -113 -326 -113 l-265 0 5 33 c3 17 18
148 33 290 l27 257 338 0 337 0 -64 -197z m-1695 -622 c10 -10 22 -36 25 -57
9 -55 46 -441 46 -475 l0 -29 -168 0 c-148 0 -171 2 -185 18 -8 9 -58 132
-111 272 -52 140 -98 263 -101 273 -7 16 8 17 234 17 223 0 242 -1 260 -19z
m771 2 c0 -25 -50 -513 -56 -540 -4 -23 -5 -23 -199 -23 -191 0 -195 0 -209
23 -14 21 -68 542 -57 552 2 3 121 5 263 5 239 0 258 -1 258 -17z m717 -10
c-34 -122 -152 -493 -162 -514 -8 -15 -24 -31 -36 -34 -28 -9 -337 -10 -346
-1 -6 6 40 471 53 539 l6 27 245 0 c229 0 245 -1 240 -17z m-1673 -1376 c52
-29 92 -82 107 -139 38 -140 -104 -279 -252 -247 -187 40 -217 301 -44 392 46
25 141 22 189 -6z m1467 0 c95 -50 135 -169 91 -269 -34 -78 -139 -135 -223
-122 -106 17 -188 122 -176 225 10 81 55 145 122 175 49 22 135 17 186 -9z"/>
</g>
</svg>
